<?xml version="1.0" encoding="utf-8"?>
<!-- Generator: Adobe Illustrator 27.1.1, SVG Export Plug-In . SVG Version: 6.00 Build 0)  -->
<svg version="1.1" id="Layer_1" xmlns="http://www.w3.org/2000/svg" xmlns:xlink="http://www.w3.org/1999/xlink" x="0px" y="0px"
	 viewBox="0 0 224 48.5" style="enable-background:new 0 0 224 48.5;" xml:space="preserve">
<style type="text/css">
	.st0{fill:#221F1F;}
	.st1{fill:url(#SVGID_1_);}
	
		.st2{clip-path:url(#SVGID_00000068663843215154988660000009838749546091114149_);fill:url(#SVGID_00000182488538637135471810000012826787214317063846_);}
	
		.st3{clip-path:url(#SVGID_00000068663843215154988660000009838749546091114149_);fill:url(#SVGID_00000022518852850989392320000017448123682408680583_);}
	
		.st4{clip-path:url(#SVGID_00000068663843215154988660000009838749546091114149_);fill:url(#SVGID_00000114065495379634831520000014918746875231004802_);}
	.st5{fill:url(#SVGID_00000016041822343881788330000008223680359848575672_);}
	.st6{fill:url(#SVGID_00000126296093207275418860000002962343315404523141_);}
	.st7{fill:url(#SVGID_00000044139937176930329810000015877110118279777450_);}
	.st8{fill:#606161;}
	.st9{fill:#4F4F4F;}
	.st10{fill:#231F20;}
	.st11{fill:url(#SVGID_00000163789990518852173170000003761423255177275314_);}
	.st12{fill:url(#SVGID_00000149378490293641285040000004534377957964940171_);}
	.st13{fill:url(#SVGID_00000031926519277457788500000016623095909282548613_);}
	.st14{fill:url(#SVGID_00000021097358675196543790000002204372295913457799_);}
	.st15{fill:url(#SVGID_00000155860208449315085720000007203560903623925648_);}
	.st16{fill:url(#SVGID_00000072259274051947229370000006804637087020638131_);}
	.st17{fill:url(#SVGID_00000122000655321381983940000002134814870776785594_);}
	.st18{fill-rule:evenodd;clip-rule:evenodd;fill:url(#SVGID_00000167388624884527937510000017285800332932044955_);}
	.st19{fill-rule:evenodd;clip-rule:evenodd;fill:url(#SVGID_00000134967244158618836220000012986481019885165238_);}
	.st20{fill-rule:evenodd;clip-rule:evenodd;fill:url(#SVGID_00000132778268547700513560000004565199007018466750_);}
	.st21{fill-rule:evenodd;clip-rule:evenodd;fill:url(#SVGID_00000173135114047332302000000005658191016667266198_);}
	.st22{fill-rule:evenodd;clip-rule:evenodd;fill:url(#SVGID_00000037683565046766836880000012476511241616551087_);}
	.st23{fill-rule:evenodd;clip-rule:evenodd;fill:url(#SVGID_00000021103503365586424980000001903334583395094946_);}
	.st24{fill:url(#SVGID_00000030467720696000741860000005555605541129430662_);}
	.st25{fill:url(#SVGID_00000026136435274592802490000003350461409988890758_);}
	.st26{fill:url(#SVGID_00000001662028646736196490000007883797579013054142_);}
	.st27{fill:url(#SVGID_00000173875619083811679280000010680096529926231946_);}
	.st28{fill:url(#SVGID_00000114049910766631981210000007990345858543690905_);}
	.st29{fill:url(#SVGID_00000017499259542603542880000002636600088098200193_);}
	.st30{fill:url(#SVGID_00000005260404421165178990000006575757394999288240_);}
	.st31{fill-rule:evenodd;clip-rule:evenodd;fill:url(#SVGID_00000114773962817839201900000014404847970187899029_);}
	.st32{fill-rule:evenodd;clip-rule:evenodd;fill:url(#SVGID_00000176027226659020412820000014488301902013327286_);}
	.st33{fill-rule:evenodd;clip-rule:evenodd;fill:url(#SVGID_00000143592136055880390000000010241910772947844031_);}
	.st34{fill-rule:evenodd;clip-rule:evenodd;fill:url(#SVGID_00000052807765111363233470000008716027361258173601_);}
	.st35{fill-rule:evenodd;clip-rule:evenodd;fill:url(#SVGID_00000064313098759943149050000003525706197024486827_);}
	.st36{fill-rule:evenodd;clip-rule:evenodd;fill:url(#SVGID_00000073706738740492631940000018381933702011425415_);}
</style>
<g>
	<g>
		<path class="st0" d="M49.7,7.3L49.7,7.3c0-2.1,1.7-3.8,3.8-3.8c2.1,0,3.8,1.7,3.8,3.8v0c0,2.1-1.7,3.8-3.8,3.8
			C51.3,11.1,49.7,9.4,49.7,7.3z M56.8,7.3L56.8,7.3c0-1.9-1.4-3.4-3.3-3.4c-1.9,0-3.3,1.5-3.3,3.4v0c0,1.8,1.4,3.4,3.3,3.4
			C55.3,10.7,56.8,9.1,56.8,7.3z M52,5.6c0-0.2,0.1-0.3,0.3-0.3h1.4c0.8,0,1.4,0.4,1.4,1.2c0,0.6-0.4,1-0.9,1.2l0.8,1
			c0.1,0.1,0.1,0.2,0.1,0.3c0,0.2-0.1,0.3-0.3,0.3c-0.1,0-0.2-0.1-0.3-0.2l-1.1-1.3h-0.9v1.2c0,0.2-0.1,0.3-0.3,0.3
			c-0.2,0-0.3-0.1-0.3-0.3V5.6z M53.7,7.2c0.5,0,0.8-0.3,0.8-0.7c0-0.5-0.3-0.7-0.8-0.7h-1v1.4H53.7z"/>
		<g>
			<g>
				<g>
					<g>
						<g>
							<g>
								
									<radialGradient id="SVGID_1_" cx="278.4241" cy="-256.4748" r="29.1264" fx="290.0264" fy="-270.635" gradientTransform="matrix(1 0 0 1 -255.9835 282.9821)" gradientUnits="userSpaceOnUse">
									<stop  offset="0.1141" style="stop-color:#616364"/>
									<stop  offset="0.1524" style="stop-color:#5C5D5E"/>
									<stop  offset="0.3438" style="stop-color:#434243"/>
									<stop  offset="1" style="stop-color:#010101"/>
								</radialGradient>
								<path class="st1" d="M51.4,24.3c0,12.9-10.5,23.3-23.4,23.3C15,47.6,4.6,37.2,4.6,24.3C4.6,11.4,15,1,28,1
									C40.9,1,51.4,11.4,51.4,24.3z"/>
								<g>
									<defs>
										<path id="SVGID_00000047776032588163041920000000955183654675763386_" d="M51.4,24.3c0,12.9-10.5,23.3-23.4,23.3
											C15,47.6,4.6,37.2,4.6,24.3C4.6,11.4,15,1,28,1C40.9,1,51.4,11.4,51.4,24.3z"/>
									</defs>
									<clipPath id="SVGID_00000027580425185233573670000003400784524214055567_">
										<use xlink:href="#SVGID_00000047776032588163041920000000955183654675763386_"  style="overflow:visible;"/>
									</clipPath>
									
										<linearGradient id="SVGID_00000069372486746729455920000007760164025313356968_" gradientUnits="userSpaceOnUse" x1="292.0288" y1="-281.6322" x2="264.7936" y2="-244.1462" gradientTransform="matrix(1 0 0 1 -255.9835 282.9821)">
										<stop  offset="0.103" style="stop-color:#221F1F"/>
										<stop  offset="0.164" style="stop-color:#2D2A2A"/>
										<stop  offset="0.2704" style="stop-color:#494747"/>
										<stop  offset="0.4095" style="stop-color:#777575"/>
										<stop  offset="0.576" style="stop-color:#B7B6B6"/>
										<stop  offset="0.7451" style="stop-color:#FFFFFF"/>
										<stop  offset="1" style="stop-color:#A6A7AA"/>
									</linearGradient>
									
										<path style="clip-path:url(#SVGID_00000027580425185233573670000003400784524214055567_);fill:url(#SVGID_00000069372486746729455920000007760164025313356968_);" d="
										M28,1c-0.2,0-0.3,0-0.5,0C15.7,2.3,5.7,11.1,5.6,24.4C5.6,36.9,13.8,43.9,21,46.6c0.4,0.1,0.8,0.2,1.2,0.3
										c-8.5-3.5-11.7-14.4-11.4-20.3C11.4,12.7,21.8,5,34.2,4.6c2.6-0.1,5.2,0.2,7.6,0.9C37.9,2.7,33.1,1,28,1z"/>
									
										<linearGradient id="SVGID_00000013880440942876923910000005676952425006938520_" gradientUnits="userSpaceOnUse" x1="291.7026" y1="-276.1036" x2="282.7581" y2="-241.4456" gradientTransform="matrix(1 0 0 1 -255.9835 282.9821)">
										<stop  offset="0" style="stop-color:#221F1F"/>
										<stop  offset="8.419160e-02" style="stop-color:#272424"/>
										<stop  offset="0.1803" style="stop-color:#343232"/>
										<stop  offset="0.2823" style="stop-color:#4B4848"/>
										<stop  offset="0.3883" style="stop-color:#6A6868"/>
										<stop  offset="0.4976" style="stop-color:#939292"/>
										<stop  offset="0.6095" style="stop-color:#C5C4C4"/>
										<stop  offset="0.7222" style="stop-color:#FFFFFF"/>
										<stop  offset="1" style="stop-color:#919395"/>
									</linearGradient>
									
										<path style="clip-path:url(#SVGID_00000027580425185233573670000003400784524214055567_);fill:url(#SVGID_00000013880440942876923910000005676952425006938520_);" d="
										M21.8,25.1c0.2-9,7.6-16.2,17.6-16.7c3.8-0.2-23.4-3.3-23.3,15.8c0,17.9,17.6,21.4,26.1,18.4
										C32.4,44.2,21.5,37.4,21.8,25.1z"/>
									
										<linearGradient id="SVGID_00000129169746463637365920000002902728813167915668_" gradientUnits="userSpaceOnUse" x1="299.7818" y1="-272.0805" x2="291.5222" y2="-250.006" gradientTransform="matrix(1 0 0 1 -255.9835 282.9821)">
										<stop  offset="0.194" style="stop-color:#221F1F"/>
										<stop  offset="0.2552" style="stop-color:#272424"/>
										<stop  offset="0.3264" style="stop-color:#353232"/>
										<stop  offset="0.4026" style="stop-color:#4C4949"/>
										<stop  offset="0.4824" style="stop-color:#6C6A6A"/>
										<stop  offset="0.565" style="stop-color:#969494"/>
										<stop  offset="0.6485" style="stop-color:#C8C7C7"/>
										<stop  offset="0.7291" style="stop-color:#FFFFFF"/>
										<stop  offset="0.9409" style="stop-color:#9B9C9F"/>
									</linearGradient>
									
										<path style="clip-path:url(#SVGID_00000027580425185233573670000003400784524214055567_);fill:url(#SVGID_00000129169746463637365920000002902728813167915668_);" d="
										M50.4,17.8l-7.8,6.2l6,0c0,3.5-3.4,6.3-6.3,6.7c-5.1,0.7-10.8-3.2-10.5-8.7c0.5-8.4,8.4-11.2,15.1-9.1
										c-2.1-1.2-3-1.8-7-1.7c-8.5,0.4-13.3,7.4-12.2,14.1l0,0c0,0,0,0,0,0c0,0.2,0.1,0.3,0.1,0.5c0,0.1,0,0.2,0.1,0.4
										c0,0,0,0,0,0.1c0,0,0,0.1,0,0.1c1.2,4.9,5.6,8.4,10.8,8.8c0.1,0,0.2,0,0.3,0.1c0,0,0,0-0.1,0c1.2,0.1,2.6,0.2,3.8-0.3
										C47.4,33.2,52.6,27.1,50.4,17.8z"/>
								</g>
								<g>
									
										<linearGradient id="SVGID_00000041268690175505867650000009529204079903008909_" gradientUnits="userSpaceOnUse" x1="292.7254" y1="-276.0907" x2="281.2719" y2="-240.7425" gradientTransform="matrix(1 0 0 1 -255.9835 282.9821)">
										<stop  offset="0" style="stop-color:#FFCA05"/>
										<stop  offset="0.1512" style="stop-color:#FEC608"/>
										<stop  offset="0.3127" style="stop-color:#FCB910"/>
										<stop  offset="0.4695" style="stop-color:#F8A51C"/>
										<stop  offset="0.731" style="stop-color:#DF8D26"/>
										<stop  offset="1" style="stop-color:#9F5625"/>
									</linearGradient>
									<path style="fill:url(#SVGID_00000041268690175505867650000009529204079903008909_);" d="M20.4,25.8
										c0.3-9.3,7.6-16.8,17.2-17c3.7-0.1,7.1,1.2,10,3.1c0,0-4.1-5.1-13.9-5.4C23.1,6.3,14,15.7,14.7,25.8
										c1.2,16.7,19.9,20.8,27.6,16.8C32.4,45.5,20.1,37.4,20.4,25.8z"/>
									
										<radialGradient id="SVGID_00000155126627756241049770000001096389520326075818_" cx="298.1937" cy="-266.6371" r="28.45" fx="297.2505" fy="-265.7347" gradientTransform="matrix(1 0 0 1 -255.9835 282.9821)" gradientUnits="userSpaceOnUse">
										<stop  offset="0.2981" style="stop-color:#FFCA05"/>
										<stop  offset="0.4106" style="stop-color:#FEC706"/>
										<stop  offset="0.4831" style="stop-color:#F9BF0B"/>
										<stop  offset="0.5443" style="stop-color:#F1B013"/>
										<stop  offset="0.5989" style="stop-color:#E69B1E"/>
										<stop  offset="0.6271" style="stop-color:#DF8D26"/>
										<stop  offset="0.6766" style="stop-color:#CC7C26"/>
										<stop  offset="0.7554" style="stop-color:#B36725"/>
										<stop  offset="0.8278" style="stop-color:#A45A25"/>
										<stop  offset="0.8871" style="stop-color:#9F5625"/>
									</radialGradient>
									<path style="fill:url(#SVGID_00000155126627756241049770000001096389520326075818_);" d="M49.9,17l-8.5,7.6l7.4,0
										c0,3.7-3.9,6.7-6.8,7.1c-5.8,0.7-11.4-2.7-11.2-9c0.3-9.1,10-12.9,18-8.6c-1.8-1.9-6-3.5-10.1-3c-8.4,1-13.6,8.1-12.4,15.1
										c0,0,0.2,1.1,0.2,1.1c1.2,5.1,5.7,8.7,10.9,9.2c0.5,0.1,2.6,0.1,4-0.2C48.8,34.6,52.7,25.4,49.9,17z"/>
									
										<linearGradient id="SVGID_00000130605044938875145900000013592808871791047857_" gradientUnits="userSpaceOnUse" x1="287.4449" y1="-278.3763" x2="264.3275" y2="-243.6562" gradientTransform="matrix(1 0 0 1 -255.9835 282.9821)">
										<stop  offset="0" style="stop-color:#FFCA05"/>
										<stop  offset="0.1227" style="stop-color:#FEC608"/>
										<stop  offset="0.257" style="stop-color:#FCB810"/>
										<stop  offset="0.3834" style="stop-color:#F8A51C"/>
										<stop  offset="0.4553" style="stop-color:#F09D1F"/>
										<stop  offset="0.6389" style="stop-color:#DF8D26"/>
										<stop  offset="0.6494" style="stop-color:#DC8B26"/>
										<stop  offset="0.7965" style="stop-color:#BB6E25"/>
										<stop  offset="0.9186" style="stop-color:#A65C25"/>
										<stop  offset="1" style="stop-color:#9F5625"/>
									</linearGradient>
									<path style="fill:url(#SVGID_00000130605044938875145900000013592808871791047857_);" d="M9.5,26.1
										C10.2,13.2,19.6,5.1,31.6,4.6C36.9,4.5,42.3,6.4,46,9.5c-2.5-3.7-7.4-6.7-12.4-7.9c-1.9-0.4-3.8-0.7-5.8-0.7
										c-12.7,0-24,9.1-24.1,23C3.8,37,15.2,45.8,22.6,47c0.1,0,0.1,0,0.1,0C14.1,43.8,8.9,35.4,9.5,26.1z"/>
								</g>
							</g>
						</g>
					</g>
				</g>
			</g>
		</g>
	</g>
	<g>
		<path class="st8" d="M65.1,38.1H66l2.3,5.3h-1l-0.5-1.3h-2.5l-0.5,1.3h-1L65.1,38.1z M66.4,41.3l-0.9-2.1l-0.9,2.1H66.4z"/>
		<path class="st8" d="M74.6,40.8L74.6,40.8c0-1.5,1.1-2.7,2.7-2.7c0.9,0,1.5,0.3,2,0.7l-0.6,0.7c-0.4-0.3-0.8-0.6-1.5-0.6
			c-1,0-1.7,0.9-1.7,1.9v0c0,1.1,0.7,1.9,1.8,1.9c0.5,0,1-0.2,1.3-0.4v-1h-1.4v-0.8h2.2v2.2c-0.5,0.4-1.3,0.8-2.2,0.8
			C75.7,43.5,74.6,42.3,74.6,40.8z"/>
		<path class="st8" d="M84.3,38.1h0.9l2.3,5.3h-1l-0.5-1.3h-2.5l-0.5,1.3h-1L84.3,38.1z M85.6,41.3l-0.9-2.1l-0.9,2.1H85.6z"/>
		<path class="st8" d="M90.6,39H89v-0.9h4.3V39h-1.7v4.4h-0.9V39z"/>
		<path class="st8" d="M95.9,38.1h3.9v0.8h-3v1.4h2.6v0.8h-2.6v1.4h3v0.8h-4V38.1z"/>
		<path class="st8" d="M102.2,38.1h1l1.3,3.9l1.3-3.9h0.8l1.3,3.9l1.3-3.9h1l-1.8,5.3h-0.8l-1.3-3.8l-1.3,3.8H104L102.2,38.1z"/>
		<path class="st8" d="M113.9,38.1h0.9l2.3,5.3h-1l-0.5-1.3h-2.5l-0.5,1.3h-1L113.9,38.1z M115.2,41.3l-0.9-2.1l-0.9,2.1H115.2z"/>
		<path class="st8" d="M120.4,41.3l-2.1-3.2h1.1l1.5,2.3l1.5-2.3h1.1l-2.1,3.2v2.1h-0.9V41.3z"/>
		<path class="st8" d="M129.6,40.8L129.6,40.8c0-1.5,1.1-2.7,2.7-2.7c0.9,0,1.5,0.3,2,0.7l-0.6,0.7c-0.4-0.3-0.8-0.6-1.5-0.6
			c-1,0-1.7,0.9-1.7,1.9v0c0,1.1,0.7,1.9,1.8,1.9c0.5,0,1-0.2,1.3-0.4v-1h-1.4v-0.8h2.2v2.2c-0.5,0.4-1.3,0.8-2.2,0.8
			C130.7,43.5,129.6,42.3,129.6,40.8z"/>
		<path class="st8" d="M137.4,38.1h2.4c0.7,0,1.2,0.2,1.5,0.5c0.3,0.3,0.4,0.7,0.4,1.1v0c0,0.9-0.5,1.4-1.3,1.6l1.4,2h-1.1l-1.3-1.8
			h-1.2v1.8h-0.9V38.1z M139.7,40.7c0.7,0,1.1-0.3,1.1-0.9v0c0-0.6-0.4-0.9-1.1-0.9h-1.4v1.8H139.7z"/>
		<path class="st8" d="M144.3,40.8L144.3,40.8c0-1.5,1.1-2.7,2.8-2.7s2.8,1.2,2.8,2.7v0c0,1.5-1.1,2.7-2.8,2.7
			C145.4,43.5,144.3,42.2,144.3,40.8z M148.8,40.8L148.8,40.8c0-1-0.7-1.9-1.8-1.9c-1,0-1.8,0.8-1.8,1.9v0c0,1,0.7,1.9,1.8,1.9
			C148.1,42.6,148.8,41.8,148.8,40.8z"/>
		<path class="st8" d="M152.5,41.1v-3h0.9v3c0,1,0.5,1.5,1.3,1.5c0.8,0,1.3-0.5,1.3-1.5v-3h0.9v3c0,1.6-0.9,2.4-2.3,2.4
			C153.4,43.5,152.5,42.7,152.5,41.1z"/>
		<path class="st8" d="M160,38.1h2.1c1.2,0,2,0.7,2,1.8v0c0,1.2-1,1.8-2.1,1.8h-1v1.7H160V38.1z M162,40.8c0.7,0,1.1-0.4,1.1-0.9v0
			c0-0.6-0.4-0.9-1.1-0.9h-1.1v1.9H162z"/>
		<path class="st8" d="M170.4,40.8L170.4,40.8c0-1.5,1.1-2.7,2.7-2.7c1,0,1.6,0.3,2.1,0.8l-0.6,0.7c-0.4-0.4-0.9-0.7-1.5-0.7
			c-1,0-1.7,0.8-1.7,1.9v0c0,1,0.7,1.9,1.7,1.9c0.6,0,1.1-0.3,1.5-0.7l0.6,0.6c-0.6,0.6-1.2,0.9-2.1,0.9
			C171.5,43.5,170.4,42.3,170.4,40.8z"/>
		<path class="st8" d="M177.5,40.8L177.5,40.8c0-1.5,1.1-2.7,2.8-2.7s2.8,1.2,2.8,2.7v0c0,1.5-1.1,2.7-2.8,2.7
			C178.6,43.5,177.5,42.2,177.5,40.8z M182,40.8L182,40.8c0-1-0.7-1.9-1.8-1.9c-1,0-1.8,0.8-1.8,1.9v0c0,1,0.7,1.9,1.8,1.9
			C181.3,42.6,182,41.8,182,40.8z"/>
		<path class="st8" d="M185.8,38.1h1l1.6,2.5l1.6-2.5h1v5.3H190v-3.8l-1.7,2.5h0l-1.7-2.5v3.8h-0.9V38.1z"/>
		<path class="st8" d="M194,38.1h2.1c1.2,0,2,0.7,2,1.8v0c0,1.2-1,1.8-2.1,1.8h-1v1.7H194V38.1z M196,40.8c0.7,0,1.1-0.4,1.1-0.9v0
			c0-0.6-0.4-0.9-1.1-0.9h-1.1v1.9H196z"/>
		<path class="st8" d="M202,38.1h0.9l2.3,5.3h-1l-0.5-1.3h-2.5l-0.5,1.3h-1L202,38.1z M203.4,41.3l-0.9-2.1l-0.9,2.1H203.4z"/>
		<path class="st8" d="M207.8,38.1h0.9l2.8,3.7v-3.7h0.9v5.3h-0.8l-2.9-3.8v3.8h-0.9V38.1z"/>
		<path class="st8" d="M217,41.3l-2.1-3.2h1.1l1.5,2.3l1.5-2.3h1.1l-2.1,3.2v2.1H217V41.3z"/>
	</g>
	<g>
		<rect x="62.6" y="34.7" class="st9" width="157.6" height="0.2"/>
	</g>
	<g>
		<path class="st10" d="M62.6,19.5L62.6,19.5c0-4.4,2.9-8.1,7.1-8.1c2.4,0,3.8,0.8,5.3,2.1l-1.5,2.1c-1.1-1-2.1-1.7-3.8-1.7
			c-2.5,0-4.4,2.5-4.4,5.5v0c0,3.2,1.9,5.5,4.6,5.5c1.3,0,2.5-0.5,3.3-1.2v-2.9h-3.5v-2.4h5.8v6.5c-1.3,1.3-3.3,2.4-5.7,2.4
			C65.4,27.5,62.6,24,62.6,19.5z"/>
		<path class="st10" d="M84.7,27.2v-1.4c-0.7,1-1.8,1.7-3.3,1.7c-2,0-3.7-1.3-3.7-3.6v0c0-2.6,1.8-3.8,4.2-3.8
			c1.3,0,2.1,0.2,2.9,0.5v-0.2c0-1.6-0.9-2.5-2.5-2.5c-1.2,0-2,0.3-2.9,0.7l-0.6-2.2c1.1-0.6,2.2-1,3.9-1c3,0,4.5,1.8,4.5,4.9v6.9
			H84.7z M84.8,22.3c-0.6-0.3-1.4-0.5-2.4-0.5c-1.5,0-2.4,0.7-2.4,1.8v0c0,1.1,0.9,1.7,2,1.7c1.6,0,2.7-1,2.7-2.5V22.3z"/>
		<path class="st10" d="M90.3,24v-6.2H89v-2.3h1.3v-3.2h2.4v3.2h2.8v2.3h-2.8v5.7c0,1,0.5,1.5,1.3,1.5c0.5,0,1-0.1,1.5-0.4v2.2
			c-0.6,0.4-1.3,0.6-2.1,0.6C91.5,27.4,90.3,26.6,90.3,24z"/>
		<path class="st10" d="M96.9,21.4L96.9,21.4c0-3.4,2.1-6.1,5-6.1c3.3,0,4.9,2.9,4.9,6.3c0,0.2,0,0.5,0,0.8h-7.6c0.3,1.9,1.4,3,3,3
			c1.2,0,2-0.5,2.8-1.4l1.4,1.4c-1,1.3-2.3,2.2-4.2,2.2C99.2,27.5,96.9,25,96.9,21.4z M104.6,20.6c-0.2-1.7-1.1-3.1-2.6-3.1
			c-1.4,0-2.5,1.3-2.7,3.1H104.6z"/>
		<path class="st10" d="M107.9,15.5h2.4l2.1,8l2.3-8.1h2l2.3,8.1l2.1-8h2.4l-3.4,11.8H118l-2.3-8l-2.3,8h-2.1L107.9,15.5z"/>
		<path class="st10" d="M131.5,27.2v-1.4c-0.7,1-1.8,1.7-3.3,1.7c-2,0-3.7-1.3-3.7-3.6v0c0-2.6,1.8-3.8,4.2-3.8
			c1.3,0,2.1,0.2,2.9,0.5v-0.2c0-1.6-0.9-2.5-2.5-2.5c-1.2,0-2,0.3-2.9,0.7l-0.6-2.2c1.1-0.6,2.2-1,3.9-1c3,0,4.5,1.8,4.5,4.9v6.9
			H131.5z M131.6,22.3c-0.6-0.3-1.4-0.5-2.4-0.5c-1.5,0-2.4,0.7-2.4,1.8v0c0,1.1,0.9,1.7,2,1.7c1.6,0,2.7-1,2.7-2.5V22.3z"/>
		<path class="st10" d="M136,30.1l0.8-2c0.4,0.3,0.9,0.4,1.4,0.4c0.7,0,1.1-0.3,1.5-1.4l-4.3-11.7h2.5l2.9,8.7l2.7-8.7h2.5
			l-4.1,12.1c-0.8,2.4-1.7,3.3-3.4,3.3C137.4,30.9,136.7,30.6,136,30.1z"/>
		
			<linearGradient id="SVGID_00000149346500618769171300000016246592677077636753_" gradientUnits="userSpaceOnUse" x1="155.7151" y1="19.2032" x2="225.1748" y2="19.2032">
			<stop  offset="0" style="stop-color:#0EBDE3"/>
			<stop  offset="1" style="stop-color:#E383B5"/>
		</linearGradient>
		<path style="fill:url(#SVGID_00000149346500618769171300000016246592677077636753_);" d="M170.3,11.2h2.7v2.6h-2.7V11.2z
			 M170.4,15.5h2.6v11.7h-2.6V15.5z"/>
		
			<linearGradient id="SVGID_00000147185937487741841970000009310343468434481293_" gradientUnits="userSpaceOnUse" x1="146.0733" y1="23.0535" x2="230.5698" y2="23.0535">
			<stop  offset="0" style="stop-color:#0EBDE3"/>
			<stop  offset="1" style="stop-color:#E383B5"/>
		</linearGradient>
		<path style="fill:url(#SVGID_00000147185937487741841970000009310343468434481293_);" d="M176.3,29.4l0.9-2c1.2,0.8,2.4,1.2,4,1.2
			c2.3,0,3.5-1.2,3.5-3.6v-0.9c-0.9,1.3-2.1,2.2-3.9,2.2c-2.6,0-5.1-2-5.1-5.5v0c0-3.5,2.5-5.5,5.1-5.5c1.9,0,3,0.9,3.9,2v-1.8h2.6
			v9.3c0,2-0.5,3.4-1.4,4.4c-1,1.1-2.6,1.6-4.6,1.6C179.4,30.8,177.7,30.3,176.3,29.4z M184.7,20.8L184.7,20.8c0-2-1.5-3.3-3.3-3.3
			c-1.8,0-3.2,1.3-3.2,3.2v0c0,1.9,1.4,3.2,3.2,3.2C183.2,24,184.7,22.7,184.7,20.8z"/>
		
			<linearGradient id="SVGID_00000093166765491795688360000009058141721212844943_" gradientUnits="userSpaceOnUse" x1="146.0733" y1="19.2032" x2="230.5698" y2="19.2032">
			<stop  offset="0" style="stop-color:#0EBDE3"/>
			<stop  offset="1" style="stop-color:#E383B5"/>
		</linearGradient>
		<path style="fill:url(#SVGID_00000093166765491795688360000009058141721212844943_);" d="M190.5,11.2h2.7v2.6h-2.7V11.2z
			 M190.6,15.5h2.6v11.7h-2.6V15.5z"/>
		
			<linearGradient id="SVGID_00000112629926637657541130000005315760138099001740_" gradientUnits="userSpaceOnUse" x1="146.0733" y1="19.8689" x2="230.5698" y2="19.8689">
			<stop  offset="0" style="stop-color:#0EBDE3"/>
			<stop  offset="1" style="stop-color:#E383B5"/>
		</linearGradient>
		<path style="fill:url(#SVGID_00000112629926637657541130000005315760138099001740_);" d="M197,24v-6.2h-1.4v-2.3h1.4v-3.2h2.6v3.2
			h3v2.3h-3v5.7c0,1,0.5,1.5,1.4,1.5c0.6,0,1.1-0.1,1.6-0.4v2.2c-0.6,0.4-1.3,0.6-2.3,0.6C198.3,27.4,197,26.6,197,24z"/>
		
			<linearGradient id="SVGID_00000067948907681554118380000006616207453823616179_" gradientUnits="userSpaceOnUse" x1="146.0733" y1="21.4113" x2="230.5698" y2="21.4113">
			<stop  offset="0" style="stop-color:#0EBDE3"/>
			<stop  offset="1" style="stop-color:#E383B5"/>
		</linearGradient>
		<path style="fill:url(#SVGID_00000067948907681554118380000006616207453823616179_);" d="M211.9,27.2v-1.4c-0.8,1-1.9,1.7-3.6,1.7
			c-2.1,0-4-1.3-4-3.6v0c0-2.6,1.9-3.8,4.5-3.8c1.3,0,2.2,0.2,3.1,0.5v-0.2c0-1.6-1-2.5-2.7-2.5c-1.2,0-2.2,0.3-3.2,0.7l-0.7-2.2
			c1.2-0.6,2.4-1,4.2-1c3.3,0,4.9,1.8,4.9,4.9v6.9H211.9z M212,22.3c-0.7-0.3-1.6-0.5-2.6-0.5c-1.6,0-2.6,0.7-2.6,1.8v0
			c0,1.1,0.9,1.7,2.2,1.7c1.7,0,3-1,3-2.5V22.3z"/>
		
			<linearGradient id="SVGID_00000041264497721836150410000008230857451673378238_" gradientUnits="userSpaceOnUse" x1="146.0733" y1="19.1367" x2="230.5698" y2="19.1367">
			<stop  offset="0" style="stop-color:#0EBDE3"/>
			<stop  offset="1" style="stop-color:#E383B5"/>
		</linearGradient>
		<path style="fill:url(#SVGID_00000041264497721836150410000008230857451673378238_);" d="M217.6,11h2.6v16.2h-2.6V11z"/>
		
			<linearGradient id="SVGID_00000074437599255929410070000018199424713549066373_" gradientUnits="userSpaceOnUse" x1="146.0733" y1="19.4695" x2="230.5698" y2="19.4695">
			<stop  offset="0" style="stop-color:#0EBDE3"/>
			<stop  offset="1" style="stop-color:#E383B5"/>
		</linearGradient>
		<path style="fill:url(#SVGID_00000074437599255929410070000018199424713549066373_);" d="M163.5,15.5v-2.6h-2.7v-1.1
			c-0.4-0.1-0.8-0.1-1.2-0.1h-5.5v15.5h5.5c4.6,0,7.8-3.4,7.8-7.8v0c0-1.4-0.4-2.8-1-3.9H163.5z M164.7,19.5c0,3-2,5.2-5.1,5.2h-2.9
			V14.2h2.9C162.7,14.2,164.7,16.4,164.7,19.5L164.7,19.5z"/>
		<g>
			
				<linearGradient id="SVGID_00000109015683258052224430000009853647237998506131_" gradientUnits="userSpaceOnUse" x1="146.0733" y1="7.8219" x2="230.5698" y2="7.8219">
				<stop  offset="0" style="stop-color:#0EBDE3"/>
				<stop  offset="1" style="stop-color:#E383B5"/>
			</linearGradient>
			
				<rect x="169.8" y="6.7" style="fill-rule:evenodd;clip-rule:evenodd;fill:url(#SVGID_00000109015683258052224430000009853647237998506131_);" width="2.3" height="2.2"/>
			
				<linearGradient id="SVGID_00000024690737650157828070000015640116124219728282_" gradientUnits="userSpaceOnUse" x1="146.0733" y1="7.7239" x2="230.5698" y2="7.7239">
				<stop  offset="0" style="stop-color:#0EBDE3"/>
				<stop  offset="1" style="stop-color:#E383B5"/>
			</linearGradient>
			
				<rect x="162.1" y="6.6" style="fill-rule:evenodd;clip-rule:evenodd;fill:url(#SVGID_00000024690737650157828070000015640116124219728282_);" width="2.4" height="2.2"/>
			
				<linearGradient id="SVGID_00000155853735755976317330000012015177767407794332_" gradientUnits="userSpaceOnUse" x1="146.0733" y1="9.1193" x2="230.5698" y2="9.1193">
				<stop  offset="0" style="stop-color:#0EBDE3"/>
				<stop  offset="1" style="stop-color:#E383B5"/>
			</linearGradient>
			
				<rect x="159.1" y="8.2" style="fill-rule:evenodd;clip-rule:evenodd;fill:url(#SVGID_00000155853735755976317330000012015177767407794332_);" width="1.9" height="1.8"/>
			
				<linearGradient id="SVGID_00000035533357596487064690000006045919026276929446_" gradientUnits="userSpaceOnUse" x1="146.0733" y1="11.0223" x2="230.5698" y2="11.0223">
				<stop  offset="0" style="stop-color:#0EBDE3"/>
				<stop  offset="1" style="stop-color:#E383B5"/>
			</linearGradient>
			
				<rect x="161.9" y="10.3" style="fill-rule:evenodd;clip-rule:evenodd;fill:url(#SVGID_00000035533357596487064690000006045919026276929446_);" width="1.6" height="1.5"/>
			
				<linearGradient id="SVGID_00000134968118450468424360000001257258935615246521_" gradientUnits="userSpaceOnUse" x1="146.0733" y1="13.4841" x2="230.5698" y2="13.4841">
				<stop  offset="0" style="stop-color:#0EBDE3"/>
				<stop  offset="1" style="stop-color:#E383B5"/>
			</linearGradient>
			
				<rect x="164.8" y="12.6" style="fill-rule:evenodd;clip-rule:evenodd;fill:url(#SVGID_00000134968118450468424360000001257258935615246521_);" width="1.9" height="1.8"/>
			
				<linearGradient id="SVGID_00000168817954339825010260000018400876818750139269_" gradientUnits="userSpaceOnUse" x1="146.0733" y1="10.0539" x2="230.5698" y2="10.0539">
				<stop  offset="0" style="stop-color:#0EBDE3"/>
				<stop  offset="1" style="stop-color:#E383B5"/>
			</linearGradient>
			
				<rect x="165.4" y="8.3" style="fill-rule:evenodd;clip-rule:evenodd;fill:url(#SVGID_00000168817954339825010260000018400876818750139269_);" width="3.8" height="3.5"/>
		</g>
		
			<linearGradient id="SVGID_00000054961643150713004810000005469043295105628298_" gradientUnits="userSpaceOnUse" x1="155.7151" y1="19.2032" x2="225.1748" y2="19.2032">
			<stop  offset="0" style="stop-color:#0EBDE3"/>
			<stop  offset="1" style="stop-color:#E383B5"/>
		</linearGradient>
		<path style="fill:url(#SVGID_00000054961643150713004810000005469043295105628298_);" d="M170.3,11.2h2.7v2.6h-2.7V11.2z
			 M170.4,15.5h2.6v11.7h-2.6V15.5z"/>
		
			<linearGradient id="SVGID_00000101811661232091541360000014420007452610174340_" gradientUnits="userSpaceOnUse" x1="146.0733" y1="23.0535" x2="230.5698" y2="23.0535">
			<stop  offset="0" style="stop-color:#0EBDE3"/>
			<stop  offset="1" style="stop-color:#E383B5"/>
		</linearGradient>
		<path style="fill:url(#SVGID_00000101811661232091541360000014420007452610174340_);" d="M176.3,29.4l0.9-2c1.2,0.8,2.4,1.2,4,1.2
			c2.3,0,3.5-1.2,3.5-3.6v-0.9c-0.9,1.3-2.1,2.2-3.9,2.2c-2.6,0-5.1-2-5.1-5.5v0c0-3.5,2.5-5.5,5.1-5.5c1.9,0,3,0.9,3.9,2v-1.8h2.6
			v9.3c0,2-0.5,3.4-1.4,4.4c-1,1.1-2.6,1.6-4.6,1.6C179.4,30.8,177.7,30.3,176.3,29.4z M184.7,20.8L184.7,20.8c0-2-1.5-3.3-3.3-3.3
			c-1.8,0-3.2,1.3-3.2,3.2v0c0,1.9,1.4,3.2,3.2,3.2C183.2,24,184.7,22.7,184.7,20.8z"/>
		
			<linearGradient id="SVGID_00000145742493278678419640000015301079703454024366_" gradientUnits="userSpaceOnUse" x1="146.0733" y1="19.2032" x2="230.5698" y2="19.2032">
			<stop  offset="0" style="stop-color:#0EBDE3"/>
			<stop  offset="1" style="stop-color:#E383B5"/>
		</linearGradient>
		<path style="fill:url(#SVGID_00000145742493278678419640000015301079703454024366_);" d="M190.5,11.2h2.7v2.6h-2.7V11.2z
			 M190.6,15.5h2.6v11.7h-2.6V15.5z"/>
		
			<linearGradient id="SVGID_00000168107011299034803090000006575519326883585412_" gradientUnits="userSpaceOnUse" x1="146.0733" y1="19.8689" x2="230.5698" y2="19.8689">
			<stop  offset="0" style="stop-color:#0EBDE3"/>
			<stop  offset="1" style="stop-color:#E383B5"/>
		</linearGradient>
		<path style="fill:url(#SVGID_00000168107011299034803090000006575519326883585412_);" d="M197,24v-6.2h-1.4v-2.3h1.4v-3.2h2.6v3.2
			h3v2.3h-3v5.7c0,1,0.5,1.5,1.4,1.5c0.6,0,1.1-0.1,1.6-0.4v2.2c-0.6,0.4-1.3,0.6-2.3,0.6C198.3,27.4,197,26.6,197,24z"/>
		
			<linearGradient id="SVGID_00000057146678517937742190000014842595089694303898_" gradientUnits="userSpaceOnUse" x1="146.0733" y1="21.4113" x2="230.5698" y2="21.4113">
			<stop  offset="0" style="stop-color:#0EBDE3"/>
			<stop  offset="1" style="stop-color:#E383B5"/>
		</linearGradient>
		<path style="fill:url(#SVGID_00000057146678517937742190000014842595089694303898_);" d="M211.9,27.2v-1.4c-0.8,1-1.9,1.7-3.6,1.7
			c-2.1,0-4-1.3-4-3.6v0c0-2.6,1.9-3.8,4.5-3.8c1.3,0,2.2,0.2,3.1,0.5v-0.2c0-1.6-1-2.5-2.7-2.5c-1.2,0-2.2,0.3-3.2,0.7l-0.7-2.2
			c1.2-0.6,2.4-1,4.2-1c3.3,0,4.9,1.8,4.9,4.9v6.9H211.9z M212,22.3c-0.7-0.3-1.6-0.5-2.6-0.5c-1.6,0-2.6,0.7-2.6,1.8v0
			c0,1.1,0.9,1.7,2.2,1.7c1.7,0,3-1,3-2.5V22.3z"/>
		
			<linearGradient id="SVGID_00000002366185103045545070000002707524010074210713_" gradientUnits="userSpaceOnUse" x1="146.0733" y1="19.1367" x2="230.5698" y2="19.1367">
			<stop  offset="0" style="stop-color:#0EBDE3"/>
			<stop  offset="1" style="stop-color:#E383B5"/>
		</linearGradient>
		<path style="fill:url(#SVGID_00000002366185103045545070000002707524010074210713_);" d="M217.6,11h2.6v16.2h-2.6V11z"/>
		
			<linearGradient id="SVGID_00000045601765120175017960000004001978040795446155_" gradientUnits="userSpaceOnUse" x1="146.0733" y1="19.4695" x2="230.5698" y2="19.4695">
			<stop  offset="0" style="stop-color:#0EBDE3"/>
			<stop  offset="1" style="stop-color:#E383B5"/>
		</linearGradient>
		<path style="fill:url(#SVGID_00000045601765120175017960000004001978040795446155_);" d="M163.5,15.5v-2.6h-2.7v-1.1
			c-0.4-0.1-0.8-0.1-1.2-0.1h-5.5v15.5h5.5c4.6,0,7.8-3.4,7.8-7.8v0c0-1.4-0.4-2.8-1-3.9H163.5z M164.7,19.5c0,3-2,5.2-5.1,5.2h-2.9
			V14.2h2.9C162.7,14.2,164.7,16.4,164.7,19.5L164.7,19.5z"/>
		<g>
			
				<linearGradient id="SVGID_00000168107337040781476520000009821066177268526001_" gradientUnits="userSpaceOnUse" x1="146.0733" y1="7.8219" x2="230.5698" y2="7.8219">
				<stop  offset="0" style="stop-color:#0EBDE3"/>
				<stop  offset="1" style="stop-color:#E383B5"/>
			</linearGradient>
			
				<rect x="169.8" y="6.7" style="fill-rule:evenodd;clip-rule:evenodd;fill:url(#SVGID_00000168107337040781476520000009821066177268526001_);" width="2.3" height="2.2"/>
			
				<linearGradient id="SVGID_00000178912244986209632630000000444236442705642113_" gradientUnits="userSpaceOnUse" x1="146.0733" y1="7.7239" x2="230.5698" y2="7.7239">
				<stop  offset="0" style="stop-color:#0EBDE3"/>
				<stop  offset="1" style="stop-color:#E383B5"/>
			</linearGradient>
			
				<rect x="162.1" y="6.6" style="fill-rule:evenodd;clip-rule:evenodd;fill:url(#SVGID_00000178912244986209632630000000444236442705642113_);" width="2.4" height="2.2"/>
			
				<linearGradient id="SVGID_00000107582361949471870350000004110061567223622030_" gradientUnits="userSpaceOnUse" x1="146.0733" y1="9.1193" x2="230.5698" y2="9.1193">
				<stop  offset="0" style="stop-color:#0EBDE3"/>
				<stop  offset="1" style="stop-color:#E383B5"/>
			</linearGradient>
			
				<rect x="159.1" y="8.2" style="fill-rule:evenodd;clip-rule:evenodd;fill:url(#SVGID_00000107582361949471870350000004110061567223622030_);" width="1.9" height="1.8"/>
			
				<linearGradient id="SVGID_00000078755549173032393490000004867884724552880000_" gradientUnits="userSpaceOnUse" x1="146.0733" y1="11.0223" x2="230.5698" y2="11.0223">
				<stop  offset="0" style="stop-color:#0EBDE3"/>
				<stop  offset="1" style="stop-color:#E383B5"/>
			</linearGradient>
			
				<rect x="161.9" y="10.3" style="fill-rule:evenodd;clip-rule:evenodd;fill:url(#SVGID_00000078755549173032393490000004867884724552880000_);" width="1.6" height="1.5"/>
			
				<linearGradient id="SVGID_00000118397614374993810570000006833924094160701312_" gradientUnits="userSpaceOnUse" x1="146.0733" y1="13.4841" x2="230.5698" y2="13.4841">
				<stop  offset="0" style="stop-color:#0EBDE3"/>
				<stop  offset="1" style="stop-color:#E383B5"/>
			</linearGradient>
			
				<rect x="164.8" y="12.6" style="fill-rule:evenodd;clip-rule:evenodd;fill:url(#SVGID_00000118397614374993810570000006833924094160701312_);" width="1.9" height="1.8"/>
			
				<linearGradient id="SVGID_00000045601680950829553270000005275602844215318453_" gradientUnits="userSpaceOnUse" x1="146.0733" y1="10.0539" x2="230.5698" y2="10.0539">
				<stop  offset="0" style="stop-color:#0EBDE3"/>
				<stop  offset="1" style="stop-color:#E383B5"/>
			</linearGradient>
			
				<rect x="165.4" y="8.3" style="fill-rule:evenodd;clip-rule:evenodd;fill:url(#SVGID_00000045601680950829553270000005275602844215318453_);" width="3.8" height="3.5"/>
		</g>
	</g>
</g>
</svg>
